<?xml version="1.0" encoding="utf-8"?>
<!-- Generator: Adobe Illustrator 19.1.0, SVG Export Plug-In . SVG Version: 6.00 Build 0)  -->
<svg version="1.1" id="Layer_1" xmlns="http://www.w3.org/2000/svg" xmlns:xlink="http://www.w3.org/1999/xlink" x="0px" y="0px"
	 viewBox="-484 340 402 92" style="enable-background:new -484 340 402 92;" xml:space="preserve">
<style type="text/css">
	.st0{opacity:0.2;}
	.st1{fill:#FFFFFF;}
</style>
<path class="st0" d="M-86.8,404.7h4.9l-0.6,3.8c-0.1,0-0.8,0.2-2.3,0.6c-1.5,0.4-3.4,0.6-5.7,0.4c-1.4-0.1-2.3-0.5-2.9-1
	c-0.6-0.6-0.9-1.2-1.1-1.8c-0.2-0.7-0.2-1.5,0-2.6l3.6-25.7c0.2-2.7-0.3-4.5-1.4-5.6c-1.1-1-3-1.7-5.6-1.8c-2.3-0.1-4.5,0-6.6,0.3
	c-2.1,0.3-4.2,0.7-6.4,1.2l-4.7,33.6c-0.2,1.3-0.5,2.1-0.8,2.5c-0.3,0.3-1,0.5-1.9,0.6h-3.3c-1,0-1.6-0.2-1.9-0.6
	c-0.2-0.4-0.2-1.2,0-2.5l8.4-60.5c0.1-0.7,0.2-1.3,0.4-1.7c0.1-0.4,0.4-0.7,0.6-0.9c0.3-0.2,0.7-0.3,1.2-0.3c0.5,0,1.2,0,2,0
	c1,0,1.7,0,2.3,0c0.6,0,1,0.1,1.2,0.3c0.3,0.2,0.4,0.5,0.4,0.9c0,0.4-0.1,1-0.2,1.8l-3.1,22h0.1c1.7-1.6,3.5-2.6,5.3-2.9
	c1.9-0.3,4.4-0.6,7.6-0.7c5.7-0.1,9.7,0.9,12,2.8c2.3,1.9,3.2,5.1,2.6,9.5L-86.8,404.7z M-131,395.8c-1.4,2.8-2.9,5.3-4.7,7.2
	s-3.6,3.4-5.4,4.3c-1.8,0.9-3.3,1.4-4.6,1.7c-2.1,0.5-4.3,0.8-6.6,0.8c-6.5,0.1-11.8-0.9-15.8-2.8l8.5-61.5c0.1-0.7,0.2-1.3,0.4-1.7
	c0.1-0.4,0.4-0.7,0.6-0.9c0.3-0.2,0.7-0.3,1.2-0.3c0.5,0,1.2,0,2,0c1,0,1.7,0,2.3,0c0.6,0,1,0.1,1.2,0.3c0.3,0.2,0.4,0.5,0.4,0.9
	c0,0.4-0.1,1-0.2,1.8l-3.1,22.2c1.6-0.8,2.9-1.4,4-1.9c2.4-1,5.2-1.4,8.2-1.4c0.9,0,1.9,0.1,3.2,0.3s2.6,0.6,3.9,1.2
	c2.1,1.1,3.8,2.6,5,4.6c1.2,2,2,4.4,2.5,7.1c0.4,2.8,0.4,5.8-0.1,9.2C-128.7,389.9-129.6,392.9-131,395.8z M-137.2,374.7
	c-0.9-2-2.8-3.3-5.7-3.8c-0.7-0.1-1.8-0.1-3.3,0c-1.5,0.1-3.3,0.5-5.4,1.3c-1.4,0.5-2.8,1.2-4.2,2l-3.9,28c1,0.2,2.1,0.4,3.3,0.6
	c1.3,0.2,3,0.3,5.1,0.3c1.4,0,2.6-0.1,3.6-0.4c1-0.3,1.8-0.6,2.5-0.9c1.5-0.7,2.9-1.9,4.1-3.5c1.3-1.6,2.3-3.4,3.1-5.4
	c0.8-2,1.4-4.9,1.9-8.7C-135.6,380.6-136,377.4-137.2,374.7z M-185.4,397.8l-10,5.6l-10,5.6l1.6-11.3l10-5.6l10-5.6l-8.4-5.6
	l-8.4-5.6l1.6-11.3l8.4,5.6l8.4,5.6l8.4,5.6l-1.6,11.3L-185.4,397.8z M-210.9,408.7c-0.1,0-0.8,0.2-2.3,0.6
	c-1.5,0.4-3.4,0.6-5.7,0.4c-1.4-0.1-2.3-0.5-2.9-1c-0.6-0.6-0.9-1.2-1.1-1.8c-0.2-0.7-0.2-1.5,0-2.6l3.6-25.7
	c0.2-2.7-0.3-4.5-1.4-5.6c-1.1-1-3-1.7-5.6-1.8c-2.3-0.1-4.4,0-6.4,0.3c-2,0.3-4.1,0.7-6.3,1.1l-4.7,33.6c-0.2,1.3-0.5,2.1-0.8,2.5
	c-0.3,0.3-1,0.5-1.9,0.6h-3.3c-1,0-1.6-0.2-1.9-0.6c-0.2-0.4-0.2-1.2,0-2.5l3.3-23.5l1.6-11.5h-4.9l0.6-4.2c0.6-0.5,1.4-1,2.2-1.4
	c0.7-0.3,1.6-0.7,2.6-1c1-0.3,2.1-0.5,3.4-0.5c1.6,0,2.7,0.4,3.3,1.3c0.6,0.9,1,1.7,1,2.5l0.2-0.2c1.7-1.6,3.5-2.6,5.3-2.9
	c1.9-0.3,4.3-0.6,7.3-0.7c5.7-0.1,9.7,0.9,12,2.8c2.3,1.9,3.2,5.1,2.6,9.5l-4,28.6h4.9L-210.9,408.7z M-252.7,351.1
	c-0.1,1-0.3,1.7-0.4,2.2c-0.2,0.5-0.4,0.9-0.8,1.1c-0.3,0.3-0.8,0.4-1.4,0.4c-0.6,0-1.3,0-2.2,0c-1.1,0-2,0-2.6,0
	c-0.6,0-1.1-0.2-1.4-0.4c-0.3-0.2-0.5-0.6-0.5-1.1c0-0.5,0.1-1.3,0.2-2.3l0.3-1.7c0.1-1,0.3-1.7,0.4-2.2c0.2-0.5,0.4-0.9,0.8-1.1
	c0.3-0.3,0.8-0.4,1.3-0.4c0.5,0,1.3,0,2.3,0c1.1,0,1.9,0,2.6,0c0.7,0,1.1,0.2,1.4,0.4c0.3,0.2,0.5,0.6,0.5,1.1c0,0.5,0,1.3-0.2,2.3
	L-252.7,351.1z M-256.6,365.3c0.6,0.9,1,1.9,1,2.5c0,0.6-0.1,1.2-0.2,1.4l-5.1,36.9c-0.1,0.8-0.2,1.4-0.4,1.8
	c-0.1,0.4-0.4,0.7-0.6,0.9c-0.3,0.2-0.7,0.3-1.2,0.3c-0.5,0-1.2,0-2,0c-1,0-1.7,0-2.3,0c-0.5,0-0.9-0.1-1.2-0.3
	c-0.3-0.2-0.4-0.5-0.4-0.9c0-0.4,0.1-1,0.2-1.8l4.9-35h-4.9l0.6-4.2c0.6-0.5,1.4-1,2.2-1.4c0.7-0.3,1.6-0.7,2.6-1
	c1-0.3,2.1-0.5,3.4-0.5C-258.3,364-257.2,364.4-256.6,365.3z M-284.7,380.9l-10,5.6l8.4,5.6l8.4,5.6l-1.6,11.3l-8.4-5.6l-8.4-5.6
	l-8.4-5.6l1.6-11.3l10-5.6l10-5.6l10-5.6l-1.6,11.3L-284.7,380.9z M-301.2,367.7c-0.2,1.3-0.4,2.3-0.8,2.9c-0.4,0.7-1.3,1-2.9,1
	h-11.5l-2.2,16.8c-0.2,1-0.3,2-0.5,3.1c-0.1,1-0.2,2-0.3,3c-0.1,1,0,1.9,0,2.8c0.1,0.9,0.3,1.6,0.6,2.3c0.6,1,1.2,1.8,1.8,2.2
	c0.6,0.5,1.3,0.7,2.2,0.9c0.8,0.1,1.7,0.1,2.7,0c1-0.1,2.1-0.1,3.3-0.1c0.9-0.1,1.4,0.1,1.5,0.7c0.2,0.6,0.4,1.6,0.7,3
	c0.2,1.1,0.2,1.8,0,2.2c-0.3,0.4-0.9,0.7-1.8,0.9c-1.8,0.3-3.5,0.5-5.4,0.5c-1.8,0-3.5-0.2-5.2-0.6c-1.6-0.4-3.1-1-4.3-1.9
	c-1.3-0.9-2.2-2.1-2.9-3.5c-0.8-1.8-1.2-3.8-1.1-6.3c0.1-2.4,0.3-5.1,0.9-8.1l4.9-34.8c0.1-0.8,0.2-1.4,0.3-1.8
	c0.1-0.4,0.3-0.7,0.6-0.9c0.3-0.2,0.7-0.3,1.3-0.3c0.5,0,1.3,0,2.3,0c1.6,0,2.6,0.1,2.9,0.4c0.3,0.3,0.4,1.2,0.2,2.7l-1.4,10.1h11.5
	c0.8,0,1.4,0,1.8,0c0.4,0,0.7,0.1,0.9,0.3c0.1,0.2,0.2,0.5,0.2,0.9C-301,366.3-301.1,366.9-301.2,367.7z M-332.5,408.7
	c-0.1,0-0.8,0.2-2.3,0.6c-1.5,0.4-3.4,0.6-5.7,0.4c-1.4-0.1-2.3-0.5-2.9-1c-0.6-0.6-0.9-1.2-1.1-1.8c-0.2-0.7-0.2-1.5,0-2.6
	l3.6-25.7c0.2-2.7-0.3-4.5-1.4-5.6c-1.1-1-3-1.7-5.6-1.8c-2.3-0.1-4.4,0-6.4,0.3c-2,0.3-4.1,0.7-6.3,1.1l-4.7,33.6
	c-0.2,1.3-0.5,2.1-0.8,2.5c-0.3,0.3-1,0.5-1.9,0.6h-3.3c-1,0-1.6-0.2-1.9-0.6c-0.2-0.4-0.2-1.2,0-2.5l3.3-23.5l1.6-11.5h-4.9
	l0.6-4.2c0.6-0.5,1.4-1,2.2-1.4c0.7-0.3,1.6-0.7,2.6-1c1-0.3,2.1-0.5,3.4-0.5c1.6,0,2.7,0.4,3.3,1.3c0.6,0.9,1,1.7,1,2.5l0.2-0.2
	c1.7-1.6,3.5-2.6,5.3-2.9c1.9-0.3,4.3-0.6,7.3-0.7c5.7-0.1,9.7,0.9,12,2.8c2.3,1.9,3.2,5.1,2.6,9.5l-4,28.6h4.9L-332.5,408.7z
	 M-381.1,398.4c-1.4,2.6-3.1,4.8-5.2,6.6c-2.1,1.8-4.5,3.1-7.4,3.9c-2.8,0.9-6,1.1-9.6,0.9c-1.6-0.1-3.2-0.4-4.6-0.8
	c-1.4-0.4-2.7-1-3.8-1.6c-3.2-1.9-5.3-4.6-6.5-8.2c-1.1-3.6-1.2-8-0.1-13.4c0.7-3.3,1.7-6.3,3.1-9.1c1.4-2.8,3.1-5.1,5.2-7
	c2.1-1.9,4.5-3.4,7.4-4.4c2.8-1,6.1-1.4,9.7-1.1c3.2,0.2,5.9,1,8.1,2.4c2.2,1.4,3.9,3.2,5,5.4c1.2,2.2,1.9,4.9,2.1,7.9
	c0.2,3,0.1,6.2-0.5,9.7C-378.8,392.9-379.7,395.8-381.1,398.4z M-386.3,376.9c-0.7-1.6-1.7-2.9-3-3.8c-1.4-0.9-3.2-1.5-5.4-1.6
	c-2.5-0.1-4.7,0.2-6.5,0.9c-1.8,0.7-3.4,1.7-4.7,3.1c-1.3,1.4-2.3,3-3.1,4.9c-0.8,1.9-1.3,4-1.7,6.3c-0.3,2.2-0.5,4.2-0.4,6
	c0.1,1.8,0.4,3.5,0.9,5c1.4,3,4.3,4.6,8.8,4.9c2.4,0.2,4.6,0,6.3-0.6c1.8-0.6,3.3-1.4,4.6-2.6c1.2-1.2,2.2-2.7,3-4.4
	c0.7-1.8,1.3-3.8,1.7-6c0.4-2.3,0.6-4.5,0.5-6.6C-385.3,380.4-385.7,378.5-386.3,376.9z M-417.5,370.3c-0.4,0.6-1,0.8-1.7,0.8
	c-1-0.2-2.2-0.3-3.5-0.3c-1.3,0-2.7,0.1-4.1,0.2c-1.4,0.1-2.7,0.3-4,0.6c-1.3,0.3-2.5,0.6-3.5,0.9l-4.7,33.6
	c-0.2,1.3-0.5,2.1-0.8,2.5c-0.3,0.3-1,0.5-1.9,0.6h-3.3c-1,0-1.6-0.2-1.9-0.6c-0.2-0.4-0.2-1.2,0-2.5l3.3-23.5l1.6-11.5h-4.9
	l0.6-4.2c0.6-0.5,1.4-1,2.2-1.4c0.7-0.3,1.6-0.7,2.6-1c1-0.3,2.1-0.5,3.4-0.5c1.6,0,2.7,0.4,3.3,1.3c0.6,0.9,1,1.7,1,2.5l0.2-0.2
	c1.6-1.5,3.6-2.5,6-3c0.7-0.1,1.6-0.2,2.6-0.3c1-0.1,1.9-0.1,2.9-0.2c1,0,1.9,0,2.8,0c0.9,0,1.6,0.1,2.1,0.1
	c0.9,0.2,1.4,0.4,1.6,0.7c0.1,0.3,0,1.1-0.5,2.3C-416.7,368.7-417.2,369.7-417.5,370.3z M-447,348.7c-0.4,0.5-1,0.8-1.7,0.6
	c-1.2,0-2.5-0.1-3.7-0.2c-1.2-0.1-2.4-0.1-3.5,0c-1.1,0.1-2.2,0.4-3.2,0.8c-1,0.4-1.9,1.1-2.7,2.2c-1.1,1.3-1.8,3-2.2,5.1
	c-0.4,2.1-0.7,4.1-1,6.1l-0.2,1.4h10c1.5,0,2.4,0.3,2.6,1c0.2,0.7,0.1,1.6-0.1,2.9c-0.1,0.8-0.2,1.4-0.3,1.9c-0.1,0.5-0.2,0.8-0.4,1
	c-0.2,0.2-0.6,0.4-1,0.4c-0.4,0.1-1,0.1-1.8,0.1h-10l-7.8,56.9c-0.1,0.8-0.2,1.4-0.4,1.8c-0.1,0.4-0.4,0.7-0.7,0.9
	c-0.3,0.2-0.7,0.3-1.2,0.3c-0.5,0-1.2,0-2,0c-1,0-1.7,0-2.3,0c-0.5,0-0.9-0.1-1.2-0.3c-0.3-0.2-0.4-0.5-0.4-0.9c0-0.4,0.1-1,0.2-1.8
	l7.8-56.8l1.4-9.7c0.5-3.1,1-5.8,1.5-8.2c0.6-2.4,1.5-4.5,2.7-6.2c1.4-1.9,3.2-3.4,5.2-4.3c2-0.9,4.5-1.5,7.4-1.6
	c1.5-0.1,3.1-0.1,4.8,0c1.6,0.1,3.2,0.3,4.5,0.6c1,0.1,1.5,0.3,1.6,0.7c0.1,0.3-0.1,1.1-0.6,2.4C-446.1,347.1-446.6,348.2-447,348.7
	z"/>
<path class="st1" d="M-88.8,402.7h4.9l-0.6,3.8c-0.1,0-0.8,0.2-2.3,0.6c-1.5,0.4-3.4,0.6-5.7,0.4c-1.4-0.1-2.3-0.5-2.9-1
	c-0.6-0.6-0.9-1.2-1.1-1.8c-0.2-0.7-0.2-1.5,0-2.6l3.6-25.7c0.2-2.7-0.3-4.5-1.4-5.6c-1.1-1-3-1.7-5.6-1.8c-2.3-0.1-4.5,0-6.6,0.3
	c-2.1,0.3-4.2,0.7-6.4,1.2l-4.7,33.6c-0.2,1.3-0.5,2.1-0.8,2.5c-0.3,0.3-1,0.5-1.9,0.6h-3.3c-1,0-1.6-0.2-1.9-0.6
	c-0.2-0.4-0.2-1.2,0-2.5l8.4-60.5c0.1-0.7,0.2-1.3,0.4-1.7c0.1-0.4,0.4-0.7,0.6-0.9c0.3-0.2,0.7-0.3,1.2-0.3c0.5,0,1.2,0,2,0
	c1,0,1.7,0,2.3,0c0.6,0,1,0.1,1.2,0.3c0.3,0.2,0.4,0.5,0.4,0.9c0,0.4-0.1,1-0.2,1.8l-3.1,22h0.1c1.7-1.6,3.5-2.6,5.3-2.9
	c1.9-0.3,4.4-0.6,7.6-0.7c5.7-0.1,9.7,0.9,12,2.8c2.3,1.9,3.2,5.1,2.6,9.5L-88.8,402.7z M-133,393.8c-1.4,2.8-2.9,5.3-4.7,7.2
	s-3.6,3.4-5.4,4.3c-1.8,0.9-3.3,1.4-4.6,1.7c-2.1,0.5-4.3,0.8-6.6,0.8c-6.5,0.1-11.8-0.9-15.8-2.8l8.5-61.5c0.1-0.7,0.2-1.3,0.4-1.7
	c0.1-0.4,0.4-0.7,0.6-0.9c0.3-0.2,0.7-0.3,1.2-0.3c0.5,0,1.2,0,2,0c1,0,1.7,0,2.3,0c0.6,0,1,0.1,1.2,0.3c0.3,0.2,0.4,0.5,0.4,0.9
	c0,0.4-0.1,1-0.2,1.8l-3.1,22.2c1.6-0.8,2.9-1.4,4-1.9c2.4-1,5.2-1.4,8.2-1.4c0.9,0,1.9,0.1,3.2,0.3s2.6,0.6,3.9,1.2
	c2.1,1.1,3.8,2.6,5,4.6c1.2,2,2,4.4,2.5,7.1c0.4,2.8,0.4,5.8-0.1,9.2C-130.7,387.9-131.6,390.9-133,393.8z M-139.2,372.7
	c-0.9-2-2.8-3.3-5.7-3.8c-0.7-0.1-1.8-0.1-3.3,0c-1.5,0.1-3.3,0.5-5.4,1.3c-1.4,0.5-2.8,1.2-4.2,2l-3.9,28c1,0.2,2.1,0.4,3.3,0.6
	c1.3,0.2,3,0.3,5.1,0.3c1.4,0,2.6-0.1,3.6-0.4c1-0.3,1.8-0.6,2.5-0.9c1.5-0.7,2.9-1.9,4.1-3.5c1.3-1.6,2.3-3.4,3.1-5.4
	c0.8-2,1.4-4.9,1.9-8.7C-137.6,378.6-138,375.4-139.2,372.7z M-187.4,395.8l-10,5.6l-10,5.6l1.6-11.3l10-5.6l10-5.6l-8.4-5.6
	l-8.4-5.6l1.6-11.3l8.4,5.6l8.4,5.6l8.4,5.6l-1.6,11.3L-187.4,395.8z M-212.9,406.7c-0.1,0-0.8,0.2-2.3,0.6
	c-1.5,0.4-3.4,0.6-5.7,0.4c-1.4-0.1-2.3-0.5-2.9-1c-0.6-0.6-0.9-1.2-1.1-1.8c-0.2-0.7-0.2-1.5,0-2.6l3.6-25.7
	c0.2-2.7-0.3-4.5-1.4-5.6c-1.1-1-3-1.7-5.6-1.8c-2.3-0.1-4.4,0-6.4,0.3c-2,0.3-4.1,0.7-6.3,1.1l-4.7,33.6c-0.2,1.3-0.5,2.1-0.8,2.5
	c-0.3,0.3-1,0.5-1.9,0.6h-3.3c-1,0-1.6-0.2-1.9-0.6c-0.2-0.4-0.2-1.2,0-2.5l3.3-23.5l1.6-11.5h-4.9l0.6-4.2c0.6-0.5,1.4-1,2.2-1.4
	c0.7-0.3,1.6-0.7,2.6-1c1-0.3,2.1-0.5,3.4-0.5c1.6,0,2.7,0.4,3.3,1.3c0.6,0.9,1,1.7,1,2.5l0.2-0.2c1.7-1.6,3.5-2.6,5.3-2.9
	c1.9-0.3,4.3-0.6,7.3-0.7c5.7-0.1,9.7,0.9,12,2.8c2.3,1.9,3.2,5.1,2.6,9.5l-4,28.6h4.9L-212.9,406.7z M-254.7,349.1
	c-0.1,1-0.3,1.7-0.4,2.2c-0.2,0.5-0.4,0.9-0.8,1.1c-0.3,0.3-0.8,0.4-1.4,0.4c-0.6,0-1.3,0-2.2,0c-1.1,0-2,0-2.6,0
	c-0.6,0-1.1-0.2-1.4-0.4c-0.3-0.2-0.5-0.6-0.5-1.1c0-0.5,0.1-1.3,0.2-2.3l0.3-1.7c0.1-1,0.3-1.7,0.4-2.2c0.2-0.5,0.4-0.9,0.8-1.1
	c0.3-0.3,0.8-0.4,1.3-0.4c0.5,0,1.3,0,2.3,0c1.1,0,1.9,0,2.6,0c0.7,0,1.1,0.2,1.4,0.4c0.3,0.2,0.5,0.6,0.5,1.1c0,0.5,0,1.3-0.2,2.3
	L-254.7,349.1z M-258.6,363.3c0.6,0.9,1,1.9,1,2.5c0,0.6-0.1,1.2-0.2,1.4l-5.1,36.9c-0.1,0.8-0.2,1.4-0.4,1.8
	c-0.1,0.4-0.4,0.7-0.6,0.9c-0.3,0.2-0.7,0.3-1.2,0.3c-0.5,0-1.2,0-2,0c-1,0-1.7,0-2.3,0c-0.5,0-0.9-0.1-1.2-0.3
	c-0.3-0.2-0.4-0.5-0.4-0.9c0-0.4,0.1-1,0.2-1.8l4.9-35h-4.9l0.6-4.2c0.6-0.5,1.4-1,2.2-1.4c0.7-0.3,1.6-0.7,2.6-1
	c1-0.3,2.1-0.5,3.4-0.5C-260.3,362-259.2,362.4-258.6,363.3z M-286.7,378.9l-10,5.6l8.4,5.6l8.4,5.6l-1.6,11.3l-8.4-5.6l-8.4-5.6
	l-8.4-5.6l1.6-11.3l10-5.6l10-5.6l10-5.6l-1.6,11.3L-286.7,378.9z M-303.2,365.7c-0.2,1.3-0.4,2.3-0.8,2.9c-0.4,0.7-1.3,1-2.9,1
	h-11.5l-2.2,16.8c-0.2,1-0.3,2-0.5,3.1c-0.1,1-0.2,2-0.3,3c-0.1,1,0,1.9,0,2.8c0.1,0.9,0.3,1.6,0.6,2.3c0.6,1,1.2,1.8,1.8,2.2
	c0.6,0.5,1.3,0.7,2.2,0.9c0.8,0.1,1.7,0.1,2.7,0c1-0.1,2.1-0.1,3.3-0.1c0.9-0.1,1.4,0.1,1.5,0.7c0.2,0.6,0.4,1.6,0.7,3
	c0.2,1.1,0.2,1.8,0,2.2c-0.3,0.4-0.9,0.7-1.8,0.9c-1.8,0.3-3.5,0.5-5.4,0.5c-1.8,0-3.5-0.2-5.2-0.6c-1.6-0.4-3.1-1-4.3-1.9
	c-1.3-0.9-2.2-2.1-2.9-3.5c-0.8-1.8-1.2-3.8-1.1-6.3c0.1-2.4,0.3-5.1,0.9-8.1l4.9-34.8c0.1-0.8,0.2-1.4,0.3-1.8
	c0.1-0.4,0.3-0.7,0.6-0.9c0.3-0.2,0.7-0.3,1.3-0.3c0.5,0,1.3,0,2.3,0c1.6,0,2.6,0.1,2.9,0.4c0.3,0.3,0.4,1.2,0.2,2.7l-1.4,10.1h11.5
	c0.8,0,1.4,0,1.8,0c0.4,0,0.7,0.1,0.9,0.3c0.1,0.2,0.2,0.5,0.2,0.9C-303,364.3-303.1,364.9-303.2,365.7z M-334.5,406.7
	c-0.1,0-0.8,0.2-2.3,0.6c-1.5,0.4-3.4,0.6-5.7,0.4c-1.4-0.1-2.3-0.5-2.9-1c-0.6-0.6-0.9-1.2-1.1-1.8c-0.2-0.7-0.2-1.5,0-2.6
	l3.6-25.7c0.2-2.7-0.3-4.5-1.4-5.6c-1.1-1-3-1.7-5.6-1.8c-2.3-0.1-4.4,0-6.4,0.3c-2,0.3-4.1,0.7-6.3,1.1l-4.7,33.6
	c-0.2,1.3-0.5,2.1-0.8,2.5c-0.3,0.3-1,0.5-1.9,0.6h-3.3c-1,0-1.6-0.2-1.9-0.6c-0.2-0.4-0.2-1.2,0-2.5l3.3-23.5l1.6-11.5h-4.9
	l0.6-4.2c0.6-0.5,1.4-1,2.2-1.4c0.7-0.3,1.6-0.7,2.6-1c1-0.3,2.1-0.5,3.4-0.5c1.6,0,2.7,0.4,3.3,1.3c0.6,0.9,1,1.7,1,2.5l0.2-0.2
	c1.7-1.6,3.5-2.6,5.3-2.9c1.9-0.3,4.3-0.6,7.3-0.7c5.7-0.1,9.7,0.9,12,2.8c2.3,1.9,3.2,5.1,2.6,9.5l-4,28.6h4.9L-334.5,406.7z
	 M-383.1,396.4c-1.4,2.6-3.1,4.8-5.2,6.6c-2.1,1.8-4.5,3.1-7.4,3.9c-2.8,0.9-6,1.1-9.6,0.9c-1.6-0.1-3.2-0.4-4.6-0.8
	c-1.4-0.4-2.7-1-3.8-1.6c-3.2-1.9-5.3-4.6-6.5-8.2c-1.1-3.6-1.2-8-0.1-13.4c0.7-3.3,1.7-6.3,3.1-9.1c1.4-2.8,3.1-5.1,5.2-7
	c2.1-1.9,4.5-3.4,7.4-4.4c2.8-1,6.1-1.4,9.7-1.1c3.2,0.2,5.9,1,8.1,2.4c2.2,1.4,3.9,3.2,5,5.4c1.2,2.2,1.9,4.9,2.1,7.9
	c0.2,3,0.1,6.2-0.5,9.7C-380.8,390.9-381.7,393.8-383.1,396.4z M-388.3,374.9c-0.7-1.6-1.7-2.9-3-3.8c-1.4-0.9-3.2-1.5-5.4-1.6
	c-2.5-0.1-4.7,0.2-6.5,0.9c-1.8,0.7-3.4,1.7-4.7,3.1c-1.3,1.4-2.3,3-3.1,4.9c-0.8,1.9-1.3,4-1.7,6.3c-0.3,2.2-0.5,4.2-0.4,6
	c0.1,1.8,0.4,3.5,0.9,5c1.4,3,4.3,4.6,8.8,4.9c2.4,0.2,4.6,0,6.3-0.6c1.8-0.6,3.3-1.4,4.6-2.6c1.2-1.2,2.2-2.7,3-4.4
	c0.7-1.8,1.3-3.8,1.7-6c0.4-2.3,0.6-4.5,0.5-6.6C-387.3,378.4-387.7,376.5-388.3,374.9z M-419.5,368.3c-0.4,0.6-1,0.8-1.7,0.8
	c-1-0.2-2.2-0.3-3.5-0.3c-1.3,0-2.7,0.1-4.1,0.2c-1.4,0.1-2.7,0.3-4,0.6c-1.3,0.3-2.5,0.6-3.5,0.9l-4.7,33.6
	c-0.2,1.3-0.5,2.1-0.8,2.5c-0.3,0.3-1,0.5-1.9,0.6h-3.3c-1,0-1.6-0.2-1.9-0.6c-0.2-0.4-0.2-1.2,0-2.5l3.3-23.5l1.6-11.5h-4.9
	l0.6-4.2c0.6-0.5,1.4-1,2.2-1.4c0.7-0.3,1.6-0.7,2.6-1c1-0.3,2.1-0.5,3.4-0.5c1.6,0,2.7,0.4,3.3,1.3c0.6,0.9,1,1.7,1,2.5l0.2-0.2
	c1.6-1.5,3.6-2.5,6-3c0.7-0.1,1.6-0.2,2.6-0.3c1-0.1,1.9-0.1,2.9-0.2c1,0,1.9,0,2.8,0c0.9,0,1.6,0.1,2.1,0.1
	c0.9,0.2,1.4,0.4,1.6,0.7c0.1,0.3,0,1.1-0.5,2.3C-418.7,366.7-419.2,367.7-419.5,368.3z M-449,346.7c-0.4,0.5-1,0.8-1.7,0.6
	c-1.2,0-2.5-0.1-3.7-0.2c-1.2-0.1-2.4-0.1-3.5,0c-1.1,0.1-2.2,0.4-3.2,0.8c-1,0.4-1.9,1.1-2.7,2.2c-1.1,1.3-1.8,3-2.2,5.1
	c-0.4,2.1-0.7,4.1-1,6.1l-0.2,1.4h10c1.5,0,2.4,0.3,2.6,1c0.2,0.7,0.1,1.6-0.1,2.9c-0.1,0.8-0.2,1.4-0.3,1.9c-0.1,0.5-0.2,0.8-0.4,1
	c-0.2,0.2-0.6,0.4-1,0.4c-0.4,0.1-1,0.1-1.8,0.1h-10l-7.8,56.9c-0.1,0.8-0.2,1.4-0.4,1.8c-0.1,0.4-0.4,0.7-0.7,0.9
	c-0.3,0.2-0.7,0.3-1.2,0.3c-0.5,0-1.2,0-2,0c-1,0-1.7,0-2.3,0c-0.5,0-0.9-0.1-1.2-0.3c-0.3-0.2-0.4-0.5-0.4-0.9c0-0.4,0.1-1,0.2-1.8
	l7.8-56.8l1.4-9.7c0.5-3.1,1-5.8,1.5-8.2c0.6-2.4,1.5-4.5,2.7-6.2c1.4-1.9,3.2-3.4,5.2-4.3c2-0.9,4.5-1.5,7.4-1.6
	c1.5-0.1,3.1-0.1,4.8,0c1.6,0.1,3.2,0.3,4.5,0.6c1,0.1,1.5,0.3,1.6,0.7c0.1,0.3-0.1,1.1-0.6,2.4C-448.1,345.1-448.6,346.2-449,346.7
	z"/>
</svg>
