<?xml version="1.0" encoding="utf-8"?>
<!-- Generator: Adobe Illustrator 16.0.0, SVG Export Plug-In . SVG Version: 6.00 Build 0)  -->
<!DOCTYPE svg PUBLIC "-//W3C//DTD SVG 1.1//EN" "http://www.w3.org/Graphics/SVG/1.1/DTD/svg11.dtd">
<svg version="1.1" id="Layer_1" xmlns="http://www.w3.org/2000/svg" xmlns:xlink="http://www.w3.org/1999/xlink" x="0px" y="0px"
	 width="744.945px" height="168px" viewBox="0 0 744.945 168" enable-background="new 0 0 744.945 168" xml:space="preserve">
<g>
	<linearGradient id="SVGID_1_" gradientUnits="userSpaceOnUse" x1="17.6636" y1="84.3364" x2="156.8516" y2="84.3364">
		<stop  offset="0" style="stop-color:#7CCCBF"/>
		<stop  offset="0.7" style="stop-color:#2E76BC"/>
		<stop  offset="1" style="stop-color:#553F99"/>
	</linearGradient>
	<path fill="url(#SVGID_1_)" d="M123.621,67.577c0,0,32.821-47.355,33.231-47.854H40.266v0.042
		c-4.731,0.261-9.388,2.188-13.002,5.801c-5.829,5.829-7.681,16.261-3.398,23.569c8.586,14.655,24.602,20.615,50.044,42.715
		c25.442,22.099,32.979,39.294,31.767,47.79c-0.52,3.636-3.126,6.649-9.464,6.649H68.229l13.49-19.267
		c0,0-2.763-5.079-10.064-13.811c-7.301-8.73-18.586-14.827-18.586-14.827l-35.405,50.563h113.092v-0.011
		c5.086-0.016,10.168-1.951,14.048-5.831c7.79-7.79,7.734-18.421,1.407-29.617s-21.838-20.099-50.127-42.152
		C67.795,49.282,59.82,38.962,59.343,32.212c-0.531-7.51,5.711-9.828,11.348-9.828h35.473L91.531,43.727
		c0,0,3.111,3.248,11.968,10.134C114.444,62.368,123.621,67.577,123.621,67.577z"/>
	<g>
		<defs>
			<path id="SVGID_2_" d="M123.621,67.577c0,0,32.821-47.355,33.231-47.854H40.266v0.042c-4.731,0.261-9.388,2.188-13.002,5.801
				c-5.829,5.829-7.681,16.261-3.398,23.569c8.586,14.655,24.602,20.615,50.044,42.715c25.442,22.099,32.979,39.294,31.767,47.79
				c-0.52,3.636-3.126,6.649-9.464,6.649H68.229l13.49-19.267c0,0-2.763-5.079-10.064-13.811
				c-7.301-8.73-18.586-14.827-18.586-14.827l-35.405,50.563h113.092v-0.011c5.086-0.016,10.168-1.951,14.048-5.831
				c7.79-7.79,7.734-18.421,1.407-29.617s-21.838-20.099-50.127-42.152C67.795,49.282,59.82,38.962,59.343,32.212
				c-0.531-7.51,5.711-9.828,11.348-9.828h35.473L91.531,43.727c0,0,3.111,3.248,11.968,10.134
				C114.444,62.368,123.621,67.577,123.621,67.577z"/>
		</defs>
		<clipPath id="SVGID_3_">
			<use xlink:href="#SVGID_2_"  overflow="visible"/>
		</clipPath>
		
			<radialGradient id="SVGID_4_" cx="38.5728" cy="85.875" r="106.5745" gradientTransform="matrix(0.9376 0 0 0.9376 99.1835 24.1225)" gradientUnits="userSpaceOnUse">
			<stop  offset="0" style="stop-color:#8ED8F8"/>
			<stop  offset="1" style="stop-color:#63A8CC;stop-opacity:0"/>
		</radialGradient>
		<circle clip-path="url(#SVGID_3_)" fill="url(#SVGID_4_)" cx="135.35" cy="104.638" r="99.924"/>
	</g>
	<linearGradient id="SVGID_5_" gradientUnits="userSpaceOnUse" x1="22.8423" y1="84.3115" x2="143.3101" y2="84.3115">
		<stop  offset="0" style="stop-color:#96D5D2;stop-opacity:0.7"/>
		<stop  offset="1" style="stop-color:#2484C6;stop-opacity:0"/>
	</linearGradient>
	<path fill="url(#SVGID_5_)" d="M141.52,118.181c-3.242-8.894-16.367-22.322-52.004-44.029
		c-30.634-18.66-43.927-35.348-38.923-47.389c3.425-8.242,17.83-6.974,17.827-7.039c0,0-6.036-0.065-12.783-0.046
		c-8.646,0.022-18.861,0.336-23.339,2.707c-14.862,7.869-9.556,23.425-2.032,31.745c7.522,8.319,31.73,22.337,56.779,44.883
		c23.978,21.58,36.045,49.937,7.194,49.937h25.976h10.542l-4.691-0.011C131.15,148.923,148.954,138.572,141.52,118.181z"/>
	<linearGradient id="SVGID_6_" gradientUnits="userSpaceOnUse" x1="150.9302" y1="84.3364" x2="31.2988" y2="84.3364">
		<stop  offset="0" style="stop-color:#FFFFFF"/>
		<stop  offset="1" style="stop-color:#2484C6;stop-opacity:0"/>
	</linearGradient>
	<path opacity="0.5" fill="url(#SVGID_6_)" d="M148.406,118.229c-7.74-16.561-32.768-27.111-61.387-45.906
		C57.037,52.633,38.871,39.32,43.874,27.279c3.426-8.242,25.337-7.443,25.333-7.509c0,0-6.138-0.216-13.209,0.01
		c-0.961,0.083-16.815,0.383-22.914,11.252C26.986,41.9,36.164,53.151,65.909,73.198c30.039,20.244,51.932,34.15,57.039,42.121
		c11.812,18.437-4.146,33.649-9.231,33.665v0.012h11.976h3.974l-0.47-0.012c4.355,0.016,9.021-0.946,12.881-3.597
		C149.496,140.295,154.042,130.284,148.406,118.229z"/>
	<g opacity="0.8">
		<defs>
			<path id="SVGID_7_" opacity="0.8" d="M148.406,118.229c-7.74-16.561-32.768-27.111-61.387-45.906
				C57.037,52.633,38.871,39.32,43.874,27.279c3.426-8.242,25.337-7.443,25.333-7.509c0,0-6.138-0.216-13.209,0.01
				c-0.961,0.083-16.815,0.383-22.914,11.252c-6.098,10.868,4.58,22.62,34.326,42.666c30.039,20.244,50.932,35.151,56.038,43.122
				c11.812,18.437-4.646,32.148-9.731,32.164v0.012h11.976h3.974l-0.47-0.012c4.355,0.016,9.021-0.946,12.881-3.597
				C149.496,140.295,154.042,130.284,148.406,118.229z"/>
		</defs>
		<clipPath id="SVGID_8_">
			<use xlink:href="#SVGID_7_"  overflow="visible"/>
		</clipPath>
		
			<radialGradient id="SVGID_9_" cx="38.5728" cy="85.875" r="106.5745" gradientTransform="matrix(0.9376 0 0 0.9376 99.1835 24.1225)" gradientUnits="userSpaceOnUse">
			<stop  offset="0" style="stop-color:#8ED8F8"/>
			<stop  offset="1" style="stop-color:#63A8CC;stop-opacity:0"/>
		</radialGradient>
		<circle clip-path="url(#SVGID_8_)" fill="url(#SVGID_9_)" cx="135.35" cy="104.638" r="99.924"/>
	</g>
	<linearGradient id="SVGID_10_" gradientUnits="userSpaceOnUse" x1="138.4551" y1="84.312" x2="23.8428" y2="84.312">
		<stop  offset="0" style="stop-color:#2484C6;stop-opacity:0.2"/>
		<stop  offset="1" style="stop-color:#2484C6;stop-opacity:0"/>
	</linearGradient>
	<path fill="url(#SVGID_10_)" d="M136.517,118.682c-4.98-13.349-22.873-22.823-58.508-44.53
		C47.374,55.491,41.086,38.804,46.09,26.763c3.425-8.242,23.334-6.974,23.331-7.039c0,0-6.035-0.065-12.784-0.046
		c-8.645,0.022-18.86,0.336-23.339,2.707c-14.862,7.869-9.556,21.924-2.032,30.243c7.522,8.32,25.844,20.026,53.777,38.879
		c21.226,14.326,34.485,29.837,32.847,39.617c-1.301,7.768-6.139,17.825-17.146,17.825h14.467h10.542l-4.691-0.011
		C126.147,148.923,144.373,139.741,136.517,118.682z"/>
	<linearGradient id="SVGID_11_" gradientUnits="userSpaceOnUse" x1="128.8022" y1="64.6182" x2="128.8022" y2="19.7236">
		<stop  offset="0" style="stop-color:#6DCFF6;stop-opacity:0.5"/>
		<stop  offset="1" style="stop-color:#2484C6;stop-opacity:0"/>
	</linearGradient>
	<path fill="url(#SVGID_11_)" d="M101.996,47.792c5.528,5.988,23.676,16.826,23.676,16.826l31.18-44.895h-40.575
		c0,0-12.791,20.053-14.735,22.958C100.243,44.621,100.656,46.341,101.996,47.792z"/>
	<linearGradient id="SVGID_12_" gradientUnits="userSpaceOnUse" x1="34.7007" y1="122.7607" x2="42.9912" y2="129.0081">
		<stop  offset="0" style="stop-color:#FFFFFF;stop-opacity:0.5"/>
		<stop  offset="0.7295" style="stop-color:#FFFFFF;stop-opacity:0"/>
	</linearGradient>
	<path fill="url(#SVGID_12_)" d="M53.069,98.386c0,0,2.034,1.155,3.856,2.325c1.822,1.171,3.44,2.363,3.44,2.363l-32.401,45.875
		h-10.3L53.069,98.386z"/>
	<linearGradient id="SVGID_13_" gradientUnits="userSpaceOnUse" x1="130.9976" y1="19.7236" x2="130.9976" y2="67.5771">
		<stop  offset="0" style="stop-color:#C7EAFB;stop-opacity:0.8"/>
		<stop  offset="0.3" style="stop-color:#6DCFF6;stop-opacity:0.5"/>
		<stop  offset="1" style="stop-color:#2484C6;stop-opacity:0"/>
	</linearGradient>
	<path fill="url(#SVGID_13_)" d="M113.519,61.156c0,0,3.144,2.083,4.971,3.283c1.827,1.201,5.13,3.138,5.13,3.138l33.231-47.854
		h-15.302h-36.406c0,0,36.406,0,31.271,7.774L113.519,61.156z"/>
	<linearGradient id="SVGID_14_" gradientUnits="userSpaceOnUse" x1="17.6636" y1="123.6909" x2="73.6182" y2="123.6909">
		<stop  offset="0" style="stop-color:#7CCCBF;stop-opacity:0"/>
		<stop  offset="1" style="stop-color:#2E76BC"/>
	</linearGradient>
	<path fill="url(#SVGID_14_)" d="M73.618,115.604l-23.473,33.392l-32.481-0.047l35.405-50.563c0,0,6.262,3.222,12.197,8.48
		C71.369,112.275,73.618,115.604,73.618,115.604z"/>
</g>
<g>
	<path fill="#00719A" d="M292.131,101.811c0,4.123-0.687,8.026-2.059,11.709c-1.374,3.683-3.579,6.921-6.616,9.719
		c-3.039,2.798-6.91,5.008-11.614,6.628c-4.705,1.619-10.39,2.43-17.054,2.43c-5.686,0-11.077-0.564-16.172-1.69
		c-5.097-1.125-9.753-2.669-13.967-4.631l3.676-14.408c4.507,1.374,8.821,2.403,12.938,3.088c4.117,0.687,8.722,1.029,13.82,1.029
		c5.683,0,9.604-1.199,11.761-3.603c2.155-2.4,3.234-5.66,3.234-9.776c0-1.077-0.246-2.132-0.735-3.161
		c-0.492-1.029-1.349-2.008-2.573-2.94c-1.227-0.931-2.917-1.886-5.072-2.867c-2.157-0.979-4.852-1.959-8.086-2.939
		c-5.098-1.567-9.386-3.234-12.864-4.999c-3.48-1.765-6.273-3.822-8.38-6.175c-2.109-2.353-3.627-5.047-4.558-8.086
		c-0.933-3.037-1.397-6.664-1.397-10.88c0-4.116,0.71-7.938,2.132-11.467c1.42-3.528,3.602-6.591,6.542-9.188
		c2.94-2.597,6.616-4.606,11.026-6.028c4.411-1.42,9.604-2.132,15.584-2.132c4.312,0,8.722,0.244,13.232,0.729
		c4.507,0.487,9.505,1.312,14.996,2.479l-2.205,15.905c-2.844-0.489-5.343-0.882-7.498-1.176c-2.157-0.294-4.241-0.515-6.249-0.662
		c-2.01-0.146-3.969-0.243-5.88-0.294c-1.912-0.048-3.947-0.073-6.102-0.073c-4.999,0-8.504,1.057-10.512,3.168
		c-2.01,2.111-3.014,4.982-3.014,8.614c0,1.277,0.243,2.405,0.735,3.389c0.489,0.982,1.346,1.915,2.573,2.798
		c1.225,0.884,2.842,1.792,4.852,2.725c2.008,0.933,4.581,1.891,7.719,2.871c5.782,1.964,10.486,3.903,14.114,5.818
		c3.625,1.916,6.443,4.05,8.454,6.407c2.008,2.356,3.381,4.957,4.116,7.804C291.763,94.79,292.131,98.08,292.131,101.811z"/>
	<path fill="#00719A" d="M338.588,132.296c-4.902,0-9.46-0.514-13.673-1.543c-4.215-1.029-7.866-2.89-10.953-5.587
		c-3.087-2.694-5.513-6.345-7.277-10.953c-1.764-4.605-2.646-10.534-2.646-17.789c0-7.153,0.882-13.206,2.646-18.157
		c1.764-4.947,4.19-8.942,7.277-11.981c3.087-3.037,6.738-5.22,10.953-6.543c4.213-1.322,8.771-1.984,13.673-1.984
		c4.9,0,9.482,0.515,13.746,1.544s7.939,2.866,11.026,5.513s5.513,6.299,7.277,10.953c1.764,4.656,2.646,10.562,2.646,17.716
		c0,7.255-0.882,13.33-2.646,18.23c-1.764,4.902-4.19,8.895-7.277,11.981c-3.087,3.088-6.763,5.293-11.026,6.616
		S343.488,132.296,338.588,132.296z M326.827,96.424c0,3.726,0.244,6.813,0.735,9.262c0.489,2.451,1.199,4.388,2.131,5.808
		c0.931,1.422,2.132,2.426,3.602,3.014s3.234,0.883,5.293,0.883c4.116,0,7.13-1.788,9.042-5.366c1.911-3.577,2.867-9.09,2.867-16.54
		c0-3.724-0.246-6.786-0.735-9.188c-0.492-2.4-1.202-4.312-2.132-5.733c-0.933-1.42-2.157-2.427-3.675-3.015
		c-1.521-0.588-3.308-0.882-5.366-0.882c-4.117,0-7.107,1.765-8.968,5.293C327.757,83.486,326.827,88.977,326.827,96.424z"/>
	<path fill="#00719A" d="M385.192,29.972l21.171-1.471v74.098c0,2.451,0.22,4.583,0.662,6.396c0.441,1.814,1.272,3.333,2.499,4.558
		c1.225,1.227,2.89,2.205,4.999,2.94c2.106,0.734,4.875,1.249,8.306,1.543l-1.617,15.144c-6.567-0.294-12.129-1.08-16.687-2.353
		s-8.284-3.136-11.173-5.587c-2.892-2.448-4.976-5.463-6.249-9.041c-1.275-3.577-1.911-7.815-1.911-12.718V29.972z"/>
	<path fill="#00719A" d="M450.91,59.229v43.253c0,4.498,0.636,7.454,1.911,8.872c1.273,1.417,2.842,2.124,4.705,2.124
		c2.253,0,4.58-0.438,6.983-1.318c2.401-0.88,4.728-1.955,6.983-3.228V59.229h21.171v71.598h-15.729l-2.208-5.439
		c-4.411,2.157-9.042,3.848-13.894,5.072c-4.852,1.224-8.993,1.837-12.423,1.837c-6.862,0-11.688-2.205-14.481-6.615
		c-2.793-4.411-4.19-10.829-4.19-19.26V59.229H450.91z"/>
	<path fill="#2B9696" d="M611.334,43.786l-14.058,13.401C587.713,47.08,576.954,42.026,565,42.026
		c-10.089,0-18.588,3.449-25.498,10.348c-6.91,6.897-10.364,15.401-10.364,25.51c0,7.042,1.53,13.294,4.59,18.755
		c3.06,5.462,7.387,9.749,12.982,12.862c5.595,3.114,11.812,4.671,18.649,4.671c5.833,0,11.164-1.089,15.994-3.27
		c4.829-2.18,10.136-6.144,15.923-11.893l13.627,14.22c-7.801,7.614-15.171,12.893-22.11,15.837
		c-6.94,2.943-14.86,4.416-23.762,4.416c-16.416,0-29.852-5.205-40.308-15.613c-10.457-10.409-15.685-23.749-15.685-40.021
		c0-10.527,2.38-19.885,7.143-28.068c4.762-8.184,11.581-14.764,20.459-19.741c8.877-4.977,18.437-7.466,28.679-7.466
		c8.71,0,17.097,1.84,25.162,5.519C598.544,31.77,605.495,37.002,611.334,43.786z"/>
	<path fill="#2B9696" d="M618.392,25.229h22.612l22.194,33.903l22.241-33.903h22.586l-33.504,51.198l35.613,54.399h-22.613
		L663.217,93.7l-24.295,37.126h-22.756l35.715-54.442L618.392,25.229z"/>
</g>
</svg>
